inDegrees=yes
name=ik_S52_A02_T02
DataType=double
version=3
OpenSimVersion=4.3-2021-08-27-4bc7ad9
endheader
time	pelvis_tilt	pelvis_list	pelvis_rotation	pelvis_tx	pelvis_ty	pelvis_tz	hip_flexion_r	hip_adduction_r	hip_rotation_r	knee_angle_r	knee_angle_r_beta	ankle_angle_r	subtalar_angle_r	mtp_angle_r	hip_flexion_l	hip_adduction_l	hip_rotation_l	knee_angle_l	knee_angle_l_beta	ankle_angle_l	subtalar_angle_l	mtp_angle_l	lumbar_extension	lumbar_bending	lumbar_rotation	arm_flex_r	arm_add_r	arm_rot_r	elbow_flex_r	pro_sup_r	wrist_flex_r	wrist_dev_r	arm_flex_l	arm_add_l	arm_rot_l	elbow_flex_l	pro_sup_l	wrist_flex_l	wrist_dev_l
33.15999999999958	-0.550135890032196	-0.899804621397308	-86.77745617480062	0	0.9399999999999999	0	1.645124582090549	-3.456778390894558	-9.087179138683492	2.112219268898142	0.03686518076634003	0	0	0	0.2828681580135551	2.710798561496297	-2.969584086760465	3.086515531881415	0.0538698584452747	0	0	0	0	0	0	32.86967002824044	-32.86967002824041	4.509493487316009	78.54418553342528	85.49050676479447	0	0	32.86967002824044	-32.86967002824041	4.509493487316009	78.54418553342528	85.4905067647027	0	0
33.17999999999959	-0.5928965728633043	-0.954102712860262	-86.73017974349105	0	0.9399999999999999	0	1.983297510430412	-3.645044262537674	-9.108070901672001	2.574762291475402	0.04493807944243969	0	0	0	0.2918960814517506	2.715255707465323	-3.290694814166168	3.028037912692656	0.05284923145170344	0	0	0	0	0	0	32.87150100290513	-32.87150100290511	4.509641439145154	78.54614172174334	85.4903588129727	0	0	32.87150100290513	-32.87150100290511	4.509641439145154	78.54614172174334	85.490358812881	0	0
33.19999999999959	-0.6809372930546541	-0.7516225453521002	-86.78257691124155	0	0.9399999999999999	0	2.57118482161377	-3.904931130567448	-9.213277520501254	3.026213172311957	0.05281738372406616	0	0	0	0.4999089375003374	2.754037492305069	-3.453642152284087	3.016595185614705	0.05264951818878608	0	0	0	0	0	0	32.87289033033817	-32.87289033033814	4.50975291501558	78.54761549075258	85.4902473371078	0	0	32.87289033033817	-32.87289033033814	4.50975291501558	78.54761549075258	85.4902473370162	0	0
33.21999999999959	-0.7456906469752664	-0.6796033392943401	-86.84070414688274	0	0.9399999999999999	0	3.216070926991484	-4.192399496973254	-9.44524045020292	3.924213558367785	0.06849044714492053	0	0	0	0.6135158933265229	2.867897104996501	-3.97768080204885	2.889514177812823	0.05043153618589065	0	0	0	0	0	0	32.87561449411793	-32.87561449411791	4.509972448734933	78.55051800396124	85.4900278033994	0	0	32.87561449411793	-32.87561449411791	4.509972448734933	78.55051800396124	85.49002780330785	0	0
33.2399999999996	-0.8396982661708317	-0.3616238393314587	-86.99605569645536	0	0.9399999999999999	0	4.93062114312895	-4.570404364912045	-9.332090560937173	5.423825487645082	0.09466361281299371	0	0	0	1.028323645420775	2.704111803610124	-4.982659801860805	2.913002451757575	0.05084148390183696	0	0	0	0	0	0	32.88070503859208	-32.88070503859205	4.51038318401439	78.55594848452411	85.48961706814046	0	0	32.88070503859208	-32.88070503859205	4.51038318401439	78.55594848452411	85.48961706804897	0	0
33.2599999999996	-0.9911848713118983	-0.008707999738814757	-87.26395504428065	0	0.9399999999999999	0	5.292091012886043	-4.45912418037992	-9.09134872049364	5.647080858058223	0.09856015409946255	0	0	0	1.609486101613553	2.524699207742887	-5.650534244205282	2.975462617374367	0.05193161944319095	0	0	0	0	0	0	32.8824092224383	-32.88240922243828	4.510519909556762	78.55775604487297	85.48948034260488	0	0	32.8824092224383	-32.88240922243828	4.510519909556762	78.55775604487297	85.4894803425134	0	0
33.2799999999996	-1.140995745555079	0.3471800683480075	-87.52794041612133	0	0.9399999999999999	0	5.981055129240164	-4.71453270354672	-9.673196833552142	6.443073769025141	0.1124528512183693	0	0	0	2.035557494696662	2.766651484653536	-5.343807697791428	2.512887814308745	0.04385816609293147	0	0	0	0	0	0	32.88496139369564	-32.88496139369562	4.510726129484602	78.56048259789362	85.48927412268736	0	0	32.88496139369564	-32.88496139369562	4.510726129484602	78.56048259789362	85.48927412259593	0	0
33.29999999999961	-1.215486151519202	0.7633825365133091	-87.83958682960767	0	0.9399999999999999	0	6.760986354530687	-5.103046814207213	-10.06606370249554	7.065034386557487	0.123308111812046	0	0	0	2.527475539279729	3.05786515675945	-5.516483047528342	2.131942360464726	0.03720941365284925	0	0	0	0	0	0	32.88682420120058	-32.88682420120055	4.510876445744323	78.56246997539719	85.48912380643516	0	0	32.88682420120058	-32.88682420120055	4.510876445744323	78.56246997539719	85.48912380634374	0	0
33.31999999999961	-1.214492987166924	1.008192754539308	-88.19988735686262	0	0.9399999999999999	0	7.410506840597406	-5.504592922832123	-10.06984725173401	7.923632833089991	0.1382934816565466	0	0	0	2.821805669351164	3.129882786039216	-5.829563609698845	1.544031224883608	0.02694842862781995	0	0	0	0	0	0	32.88869456499342	-32.88869456499339	4.511027117535945	78.56446200373965	85.48897313465109	0	0	32.88869456499342	-32.88869456499339	4.511027117535945	78.56446200373965	85.48897313455967	0	0
33.33999999999961	-1.135617141621978	0.9577715699523813	-88.48916490831493	0	0.9399999999999999	0	7.677137355504569	-5.909042489898699	-9.99148974181311	8.884385412189271	0.1550617774588563	0	0	0	2.895506739392449	3.096509506015571	-6.391791683636902	1.44890453579197	0.0252881546966499	0	0	0	0	0	0	32.89179343170059	-32.89179343170056	4.511275599749164	78.56774697110322	85.48872465245026	0	0	32.89179343170059	-32.89179343170056	4.511275599749164	78.56774697110322	85.48872465235888	0	0
33.35999999999962	-1.017272618076091	0.6849512279204087	-88.67234054757166	0	0.9399999999999999	0	7.514572224847583	-6.338888572054391	-10.00977445651196	9.943884882973006	0.17355353164717	0	0	0	2.724183981848701	3.627252837459618	-5.707231161664852	1.088891293046122	0.01900473825995326	0	0	0	0	0	0	32.89353525128849	-32.89353525128847	4.511416109629732	78.56960467249675	85.4885841425767	0	0	32.89353525128849	-32.89353525128847	4.511416109629732	78.56960467249675	85.48858414248538	0	0
33.37999999999962	-1.037025040972702	0.5757589433420985	-88.73170387580861	0	0.9399999999999999	0	7.46083717654249	-6.641591946841312	-10.13779135688739	11.5016004726964	0.2007407974974884	0	0	0	2.630612475787799	3.620209571435692	-5.766162983650799	0.8923030000366802	0.01557362527606315	0	0	0	0	0	0	32.89601973852901	-32.89601973852898	4.51161462293075	78.57222890592213	85.48838562928563	0	0	32.89601973852901	-32.89601973852898	4.51161462293075	78.57222890592213	85.48838562919433	0	0
33.39999999999962	-1.06882767665165	0.2761399638939929	-88.73069848477023	0	0.9399999999999999	0	7.021613807531713	-6.93136629826653	-10.33871865515115	13.00532365178211	0.2269857180110902	0	0	0	2.608794474868691	3.600395088940993	-5.913972322945591	1.168887261906254	0.02040093130488542	0	0	0	0	0	0	32.90066295072037	-32.90066295072035	4.511985144542111	78.57712686244192	85.48801510769276	0	0	32.90066295072037	-32.90066295072035	4.511985144542111	78.57712686244192	85.48801510760146	0	0
33.41999999999963	-1.126539285754492	0.0007852619398324908	-88.56885351211311	0	0.9399999999999999	0	6.410827084053157	-7.13434977244669	-10.60078641257816	14.41445740315854	0.2515797415735882	0	0	0	2.32678809363122	3.558418223585282	-5.753084283882878	1.225358408930575	0.02138653875283762	0	0	0	0	0	0	32.90392199641099	-32.90392199641096	4.512245869404715	78.5805735267373	85.48775438284315	0	0	32.90392199641099	-32.90392199641096	4.512245869404715	78.5805735267373	85.48775438275189	0	0
33.43999999999963	-1.166138035443734	0.006275498894718683	-88.43120469985257	0	0.9399999999999999	0	5.909417169979213	-7.328087474643398	-10.75389046378999	15.80849996512948	0.2759103741929182	0	0	0	2.863453926972578	3.685297873653999	-5.498278206848432	1.602797906024042	0.0279741007041902	0	0	0	0	0	0	32.90829538594714	-32.90829538594711	4.512596055073526	78.58520283812179	85.48740419719191	0	0	32.90829538594714	-32.90829538594711	4.512596055073526	78.58520283812179	85.4874041971007	0	0
33.45999999999963	-1.212589438189507	0.02226342265704209	-88.35967896807612	0	0.9399999999999999	0	5.238315349330271	-7.365992974789615	-10.83226902103705	16.0913476080995	0.2808469968442504	0	0	0	2.870254222515094	3.651125746614995	-5.446223464183782	1.534962523178572	0.02679014992418586	0	0	0	0	0	0	32.90965991994939	-32.90965991994936	4.51270535594453	78.58664775952793	85.48729489632635	0	0	32.90965991994939	-32.90965991994936	4.51270535594453	78.58664775952793	85.4872948962352	0	0
33.47999999999963	-1.320224889467704	0.1711535208896149	-88.18666907820244	0	0.9399999999999999	0	4.506248975692285	-7.407811395600641	-11.14329650937043	18.10953890509135	0.316071079911853	0	0	0	3.018064808027611	3.555517629955261	-5.260603285281844	1.422305574604276	0.02482391524631447	0	0	0	0	0	0	32.91246466082994	-32.91246466082991	4.512930486785719	78.5896239898441	85.48706976549637	0	0	32.91246466082994	-32.91246466082991	4.512930486785719	78.5896239898441	85.48706976540527	0	0
33.49999999999964	-1.639675456469809	0.389966584398739	-88.00117862059874	0	0.9399999999999999	0	3.766499613126329	-7.089653322018147	-11.16085601417009	18.84721804783387	0.3289460097759991	0	0	0	4.121671764152756	3.172419974495687	-6.222920557128959	2.453668192335579	0.04282458870771335	0	0	0	0	0	0	32.91683874378236	-32.91683874378234	4.513282419068575	78.5942766404754	85.48671783323107	0	0	32.91683874378236	-32.91683874378234	4.513282419068575	78.5942766404754	85.48671783313999	0	0
33.51999999999964	-1.625828361757743	0.3873133668025354	-87.99128050465201	0	0.9399999999999999	0	2.850694044821863	-7.022242721621454	-10.81111112584865	18.82303617218736	0.3285239564266598	0	0	0	4.263128843872965	3.276875454343291	-6.134533270967991	2.46252457446854	0.04297916173574833	0	0	0	0	0	0	32.91788156596605	-32.91788156596602	4.513365722567545	78.59537783474755	85.48663452973622	0	0	32.91788156596605	-32.91788156596602	4.513365722567545	78.59537783474755	85.48663452964517	0	0
33.53999999999964	-1.82243281249581	0.6411646396114756	-88.17589242527538	0	0.9399999999999999	0	2.025300433188151	-6.733569873167847	-10.3416196033483	19.08371896378986	0.3330737294434136	0	0	0	4.533809384411748	3.077686738872599	-6.307416750684366	2.375374997882277	0.04145811468259906	0	0	0	0	0	0	32.91899600530527	-32.91899600530524	4.513454858306815	78.59655614389072	85.48654539400141	0	0	32.91899600530527	-32.91899600530524	4.513454858306815	78.59655614389072	85.48654539391036	0	0
